<svg width="571" height="467" viewBox="0 0 571 467" fill="none" xmlns="http://www.w3.org/2000/svg">
<path d="M313.939 466.484L570.617 317.98L257.059 136.446L0.380798 284.95L313.939 466.484Z" fill="#E6FAFF"/>
<path d="M313.939 439.646L570.617 291.142L257.059 109.606L0.380798 258.112L313.939 439.646Z" fill="#D1E6ED"/>
<path d="M313.94 439.646V444.75L570.617 296.234V291.142L313.94 439.646Z" fill="#7CA9BF"/>
<path d="M313.94 444.75L0.380798 263.21V258.112L313.94 439.646V444.75Z" fill="#95C5D1"/>
<path d="M124.493 217.058L300.369 318.664L417.618 250.927L241.742 149.318L124.493 217.058Z" fill="#A6C6DD"/>
<path d="M124.493 196.795L300.369 298.401L417.618 230.664L241.742 129.056L124.493 196.795Z" fill="#7DA3DB"/>
<path d="M300.369 300.314V298.403L417.618 230.664V232.575L300.369 300.314Z" fill="#6A8FBA"/>
<path d="M408.792 90.5148L254.828 1.73359C248.824 -1.73018 241.326 2.60597 241.326 9.54145V129.421L414.372 229.208L415.414 231.976L417.362 230.933V105.359C417.364 99.2327 414.095 93.5741 408.792 90.5148Z" fill="#9CCAEF"/>
<path d="M300.369 300.314L124.493 198.707V196.795L300.369 298.403V300.314Z" fill="#6A8FBA"/>
<path d="M415.414 231.976L239.374 130.464V10.5844C239.374 3.64888 246.874 -0.687276 252.876 2.7765L406.837 91.5577C412.143 94.615 415.412 100.276 415.412 106.402V231.976H415.414Z" fill="#6691C4"/>
<path d="M408.963 223.534L245.826 129.461V7.15033L408.963 101.225V223.534Z" fill="#F6FBFF"/>
<path d="M249.232 153.404L238.114 146.968C237.621 146.681 237.744 146.145 238.394 145.773L243.224 142.983C243.872 142.61 244.8 142.539 245.293 142.824L256.411 149.26C256.904 149.546 256.779 150.081 256.129 150.454L251.297 153.241C250.651 153.616 249.725 153.688 249.232 153.404Z" fill="#507CA0"/>
<path d="M263.183 161.48L252.067 155.046C251.574 154.758 251.697 154.225 252.347 153.85L257.178 151.06C257.826 150.688 258.751 150.616 259.244 150.9L270.358 157.336C270.851 157.623 270.729 158.157 270.083 158.531L265.25 161.321C264.602 161.694 263.675 161.765 263.183 161.48Z" fill="#507CA0"/>
<path d="M277.136 169.557L266.023 163.121C265.525 162.836 265.65 162.3 266.3 161.928L271.131 159.138C271.775 158.763 272.704 158.692 273.195 158.977L284.313 165.413C284.807 165.699 284.684 166.234 284.036 166.607L279.201 169.394C278.555 169.771 277.632 169.843 277.136 169.557Z" fill="#507CA0"/>
<path d="M291.09 177.635L279.972 171.199C279.48 170.911 279.605 170.378 280.251 170.005L285.084 167.215C285.73 166.843 286.655 166.771 287.149 167.055L298.264 173.491C298.758 173.778 298.635 174.312 297.985 174.686L293.154 177.476C292.506 177.847 291.583 177.92 291.09 177.635Z" fill="#507CA0"/>
<path d="M305.041 185.71L293.925 179.274C293.432 178.989 293.557 178.453 294.204 178.081L299.037 175.291C299.683 174.918 300.606 174.845 301.102 175.132L312.22 181.568C312.713 181.854 312.59 182.387 311.94 182.762L307.108 185.549C306.462 185.924 305.534 185.996 305.041 185.71Z" fill="#507CA0"/>
<path d="M318.996 193.788L307.878 187.352C307.385 187.066 307.51 186.531 308.158 186.158L312.99 183.371C313.636 182.996 314.562 182.924 315.055 183.21L326.173 189.644C326.666 189.931 326.539 190.465 325.893 190.839L321.059 193.627C320.415 194.002 319.489 194.073 318.996 193.788Z" fill="#507CA0"/>
<path d="M332.947 201.865L321.832 195.429C321.338 195.144 321.461 194.608 322.111 194.236L326.942 191.446C327.59 191.073 328.515 191.002 329.008 191.287L340.122 197.721C340.615 198.009 340.495 198.544 339.845 198.917L335.014 201.706C334.368 202.079 333.443 202.149 332.947 201.865Z" fill="#507CA0"/>
<path d="M346.9 209.941L335.787 203.507C335.293 203.219 335.416 202.684 336.064 202.313L340.895 199.524C341.543 199.151 342.468 199.079 342.959 199.363L354.077 205.799C354.571 206.086 354.446 206.62 353.8 206.992L348.967 209.782C348.319 210.155 347.394 210.226 346.9 209.941Z" fill="#507CA0"/>
<path d="M360.854 218.018L349.736 211.584C349.245 211.297 349.367 210.763 350.015 210.391L354.85 207.601C355.494 207.226 356.419 207.157 356.913 207.44L368.03 213.876C368.524 214.162 368.403 214.697 367.749 215.07L362.918 217.86C362.27 218.232 361.347 218.304 360.854 218.018Z" fill="#507CA0"/>
<path d="M374.807 226.096L363.691 219.66C363.198 219.374 363.321 218.839 363.97 218.466L368.801 215.679C369.449 215.306 370.374 215.232 370.868 215.518L381.984 221.954C382.477 222.239 382.354 222.775 381.704 223.147L376.872 225.937C376.226 226.31 375.3 226.381 374.807 226.096Z" fill="#507CA0"/>
<path d="M388.76 234.173L377.642 227.737C377.149 227.45 377.274 226.918 377.924 226.544L382.756 223.756C383.4 223.383 384.326 223.31 384.819 223.595L395.937 230.031C396.43 230.319 396.303 230.852 395.657 231.227L390.827 234.017C390.179 234.387 389.253 234.457 388.76 234.173Z" fill="#507CA0"/>
<path d="M236.678 160.399L225.99 154.213C225.376 153.858 225.532 153.194 226.337 152.73L234.484 148.025C235.289 147.561 236.434 147.474 237.048 147.829L247.736 154.013C248.348 154.37 248.194 155.032 247.391 155.496L239.24 160.201C238.437 160.665 237.29 160.754 236.678 160.399Z" fill="#507CA0"/>
<path d="M250.631 168.476L239.943 162.29C239.331 161.936 239.487 161.273 240.288 160.807L248.438 156.102C249.24 155.638 250.387 155.551 250.999 155.904L261.689 162.09C262.302 162.443 262.145 163.107 261.343 163.571L253.193 168.276C252.39 168.742 251.241 168.829 250.631 168.476Z" fill="#507CA0"/>
<path d="M264.58 176.554L253.894 170.366C253.282 170.011 253.439 169.347 254.241 168.885L262.391 164.18C263.195 163.716 264.34 163.629 264.955 163.982L275.642 170.168C276.255 170.523 276.098 171.187 275.296 171.649L267.148 176.354C266.346 176.82 265.196 176.909 264.58 176.554Z" fill="#507CA0"/>
<path d="M278.535 184.63L267.85 178.444C267.235 178.089 267.392 177.426 268.194 176.962L276.346 172.26C277.148 171.796 278.296 171.706 278.908 172.061L289.594 178.247C290.208 178.602 290.051 179.266 289.247 179.728L281.101 184.433C280.297 184.895 279.15 184.984 278.535 184.63Z" fill="#507CA0"/>
<path d="M292.489 192.705L281.799 186.521C281.189 186.166 281.343 185.502 282.148 185.038L290.295 180.335C291.1 179.871 292.247 179.782 292.861 180.137L303.547 186.323C304.159 186.678 304.005 187.344 303.2 187.806L295.051 192.511C294.25 192.975 293.103 193.062 292.489 192.705Z" fill="#507CA0"/>
<path d="M306.442 200.785L295.754 194.598C295.14 194.244 295.3 193.581 296.101 193.115L304.248 188.412C305.053 187.949 306.2 187.861 306.812 188.214L317.5 194.4C318.114 194.755 317.96 195.419 317.155 195.883L309.004 200.586C308.203 201.05 307.054 201.137 306.442 200.785Z" fill="#507CA0"/>
<path d="M320.395 208.86L309.707 202.674C309.095 202.319 309.251 201.657 310.052 201.193L318.201 196.488C319.004 196.026 320.151 195.937 320.767 196.292L331.453 202.478C332.068 202.833 331.909 203.495 331.105 203.961L322.959 208.664C322.154 209.128 321.009 209.215 320.395 208.86Z" fill="#507CA0"/>
<path d="M334.346 216.938L323.662 210.752C323.048 210.397 323.201 209.734 324.005 209.268L332.155 204.566C332.959 204.102 334.106 204.012 334.719 204.365L345.406 210.553C346.021 210.908 345.862 211.57 345.062 212.034L336.91 216.739C336.11 217.203 334.96 217.292 334.346 216.938Z" fill="#507CA0"/>
<path d="M348.299 225.015L337.614 218.829C337.001 218.474 337.158 217.81 337.958 217.348L346.11 212.643C346.912 212.179 348.06 212.09 348.674 212.445L359.36 218.631C359.974 218.988 359.817 219.65 359.013 220.114L350.865 224.819C350.061 225.281 348.914 225.368 348.299 225.015Z" fill="#507CA0"/>
<path d="M362.255 233.091L351.569 226.907C350.953 226.552 351.109 225.887 351.914 225.422L360.059 220.719C360.864 220.255 362.011 220.167 362.627 220.52L373.311 226.706C373.925 227.061 373.769 227.725 372.966 228.189L364.817 232.892C364.014 233.358 362.867 233.446 362.255 233.091Z" fill="#507CA0"/>
<path d="M376.206 241.168L365.518 234.982C364.908 234.627 365.064 233.963 365.865 233.501L374.014 228.796C374.817 228.334 375.964 228.243 376.58 228.6L387.264 234.786C387.878 235.141 387.724 235.805 386.919 236.267L378.77 240.972C377.967 241.434 376.82 241.523 376.206 241.168Z" fill="#507CA0"/>
<path d="M224.341 167.519L213.654 161.333C213.037 160.978 213.196 160.316 214 159.852L222.146 155.149C222.95 154.685 224.098 154.598 224.712 154.951L235.398 161.137C236.012 161.491 235.855 162.154 235.055 162.62L226.903 167.323C226.099 167.787 224.95 167.874 224.341 167.519Z" fill="#507CA0"/>
<path d="M238.293 175.596L227.605 169.41C226.993 169.055 227.149 168.391 227.952 167.927L236.101 163.222C236.904 162.76 238.051 162.671 238.663 163.026L249.351 169.212C249.965 169.567 249.809 170.231 249.006 170.693L240.857 175.398C240.052 175.864 238.903 175.953 238.293 175.596Z" fill="#507CA0"/>
<path d="M252.246 183.674L241.558 177.488C240.946 177.133 241.102 176.471 241.905 176.007L250.054 171.304C250.859 170.84 252.004 170.751 252.616 171.106L263.306 177.292C263.918 177.646 263.76 178.309 262.957 178.773L254.81 183.478C254.005 183.94 252.858 184.027 252.246 183.674Z" fill="#507CA0"/>
<path d="M266.197 191.751L255.513 185.565C254.899 185.21 255.052 184.548 255.858 184.082L264.008 179.377C264.81 178.913 265.957 178.826 266.572 179.181L277.257 185.367C277.872 185.722 277.715 186.384 276.911 186.85L268.765 191.553C267.959 192.017 266.807 192.106 266.197 191.751Z" fill="#507CA0"/>
<path d="M280.15 199.829L269.464 193.643C268.852 193.288 269.009 192.626 269.811 192.162L277.959 187.457C278.763 186.995 279.91 186.906 280.525 187.259L291.211 193.445C291.823 193.799 291.666 194.462 290.864 194.926L282.716 199.631C281.91 200.093 280.762 200.182 280.15 199.829Z" fill="#507CA0"/>
<path d="M294.105 207.902L283.418 201.716C282.803 201.361 282.96 200.699 283.764 200.235L291.91 195.532C292.716 195.068 293.866 194.979 294.476 195.334L305.162 201.52C305.776 201.877 305.623 202.539 304.817 203.003L296.667 207.708C295.863 208.172 294.716 208.259 294.105 207.902Z" fill="#507CA0"/>
<path d="M308.057 215.982L297.369 209.798C296.757 209.443 296.913 208.779 297.718 208.317L305.865 203.612C306.668 203.148 307.815 203.059 308.431 203.414L319.117 209.6C319.729 209.954 319.575 210.619 318.77 211.083L310.621 215.788C309.816 216.248 308.669 216.337 308.057 215.982Z" fill="#507CA0"/>
<path d="M322.012 224.057L311.324 217.871C310.71 217.517 310.866 216.854 311.669 216.388L319.818 211.683C320.621 211.221 321.77 211.132 322.382 211.487L333.07 217.673C333.68 218.028 333.526 218.692 332.723 219.156L324.574 223.859C323.769 224.327 322.622 224.412 322.012 224.057Z" fill="#507CA0"/>
<path d="M335.961 232.137L325.277 225.951C324.663 225.596 324.819 224.934 325.622 224.468L333.772 219.765C334.574 219.301 335.723 219.214 336.334 219.569L347.021 225.755C347.636 226.11 347.479 226.772 346.675 227.236L338.529 231.941C337.723 232.401 336.575 232.49 335.961 232.137Z" fill="#507CA0"/>
<path d="M349.918 240.212L339.23 234.026C338.616 233.672 338.771 233.007 339.575 232.545L347.725 227.84C348.527 227.378 349.674 227.287 350.289 227.642L360.975 233.828C361.591 234.183 361.432 234.845 360.63 235.311L352.48 240.014C351.676 240.48 350.526 240.567 349.918 240.212Z" fill="#507CA0"/>
<path d="M363.869 248.29L353.184 242.104C352.567 241.749 352.726 241.087 353.528 240.623L361.678 235.92C362.478 235.454 363.63 235.367 364.24 235.72L374.928 241.906C375.54 242.261 375.385 242.923 374.583 243.387L366.433 248.092C365.627 248.556 364.482 248.645 363.869 248.29Z" fill="#507CA0"/>
<path d="M211.999 174.641L201.313 168.455C200.701 168.1 200.856 167.438 201.66 166.972L209.808 162.269C210.612 161.807 211.759 161.715 212.374 162.07L223.059 168.256C223.672 168.611 223.517 169.274 222.715 169.737L214.563 174.44C213.761 174.906 212.613 174.996 211.999 174.641Z" fill="#507CA0"/>
<path d="M225.954 182.718L215.266 176.532C214.652 176.177 214.813 175.515 215.611 175.051L223.763 170.346C224.563 169.884 225.713 169.795 226.327 170.148L237.011 176.334C237.627 176.689 237.47 177.351 236.668 177.817L228.518 182.52C227.714 182.984 226.566 183.071 225.954 182.718Z" fill="#507CA0"/>
<path d="M239.905 190.794L229.22 184.608C228.605 184.253 228.764 183.591 229.568 183.125L237.714 178.422C238.518 177.958 239.664 177.87 240.28 178.223L250.966 184.409C251.578 184.764 251.422 185.429 250.621 185.891L242.469 190.595C241.669 191.059 240.52 191.151 239.905 190.794Z" fill="#507CA0"/>
<path d="M253.861 198.871L243.173 192.685C242.559 192.33 242.713 191.668 243.518 191.204L251.669 186.501C252.472 186.037 253.619 185.948 254.231 186.303L264.917 192.489C265.533 192.844 265.373 193.508 264.57 193.97L256.423 198.675C255.62 199.137 254.473 199.226 253.861 198.871Z" fill="#507CA0"/>
<path d="M267.812 206.949L257.126 200.763C256.514 200.41 256.668 199.746 257.471 199.282L265.622 194.577C266.423 194.113 267.57 194.026 268.184 194.38L278.874 200.566C279.484 200.921 279.328 201.586 278.525 202.048L270.376 206.752C269.573 207.214 268.424 207.304 267.812 206.949Z" fill="#507CA0"/>
<path d="M281.765 215.026L271.079 208.84C270.465 208.485 270.622 207.823 271.424 207.357L279.572 202.654C280.376 202.19 281.523 202.101 282.138 202.456L292.823 208.642C293.438 208.997 293.281 209.659 292.479 210.125L284.327 214.828C283.525 215.292 282.377 215.381 281.765 215.026Z" fill="#507CA0"/>
<path d="M295.718 223.104L285.031 216.916C284.418 216.561 284.575 215.899 285.377 215.435L293.525 210.73C294.327 210.268 295.479 210.179 296.093 210.533L306.779 216.719C307.391 217.074 307.234 217.737 306.432 218.201L298.282 222.905C297.478 223.369 296.333 223.459 295.718 223.104Z" fill="#507CA0"/>
<path d="M309.673 231.179L298.986 224.993C298.371 224.638 298.528 223.976 299.33 223.512L307.48 218.807C308.282 218.345 309.428 218.256 310.042 218.611L320.73 224.797C321.342 225.152 321.186 225.814 320.385 226.278L312.233 230.981C311.433 231.445 310.286 231.534 309.673 231.179Z" fill="#507CA0"/>
<path d="M323.625 239.255L312.937 233.071C312.325 232.716 312.479 232.052 313.282 231.59L321.433 226.885C322.236 226.421 323.383 226.332 323.995 226.686L334.683 232.872C335.297 233.227 335.141 233.89 334.336 234.356L326.189 239.059C325.384 239.524 324.239 239.612 323.625 239.255Z" fill="#507CA0"/>
<path d="M337.576 247.334L326.892 241.148C326.278 240.793 326.432 240.131 327.237 239.667L335.386 234.964C336.189 234.498 337.334 234.411 337.948 234.764L348.636 240.95C349.249 241.305 349.092 241.969 348.291 242.431L340.14 247.136C339.339 247.6 338.19 247.689 337.576 247.334Z" fill="#507CA0"/>
<path d="M351.529 255.412L340.843 249.226C340.229 248.871 340.388 248.207 341.188 247.745L349.34 243.04C350.14 242.576 351.289 242.489 351.902 242.842L362.587 249.028C363.202 249.382 363.047 250.045 362.243 250.511L354.093 255.214C353.293 255.679 352.143 255.765 351.529 255.412Z" fill="#507CA0"/>
<path d="M199.661 181.761L188.977 175.575C188.365 175.22 188.519 174.557 189.324 174.093L197.473 169.389C198.272 168.927 199.423 168.837 200.037 169.192L210.721 175.378C211.335 175.733 211.179 176.397 210.374 176.861L202.229 181.566C201.422 182.028 200.275 182.115 199.661 181.761Z" fill="#507CA0"/>
<path d="M213.618 189.838L202.932 183.652C202.316 183.297 202.472 182.635 203.275 182.169L211.422 177.466C212.227 177.004 213.376 176.915 213.988 177.27L224.676 183.456C225.289 183.811 225.134 184.475 224.329 184.937L216.178 189.642C215.373 190.104 214.226 190.195 213.618 189.838Z" fill="#507CA0"/>
<path d="M227.569 197.916L216.881 191.73C216.269 191.375 216.426 190.712 217.228 190.248L225.378 185.544C226.182 185.082 227.327 184.992 227.944 185.345L238.629 191.531C239.242 191.886 239.087 192.548 238.285 193.014L230.133 197.717C229.327 198.183 228.181 198.268 227.569 197.916Z" fill="#507CA0"/>
<path d="M241.524 205.993L230.836 199.807C230.22 199.452 230.379 198.788 231.183 198.324L239.329 193.621C240.133 193.157 241.281 193.07 241.893 193.425L252.581 199.611C253.195 199.966 253.036 200.628 252.236 201.094L244.084 205.799C243.282 206.259 242.133 206.348 241.524 205.993Z" fill="#507CA0"/>
<path d="M255.474 214.071L244.788 207.885C244.175 207.53 244.33 206.865 245.133 206.404L253.284 201.699C254.087 201.237 255.234 201.147 255.848 201.502L266.534 207.688C267.148 208.043 266.992 208.705 266.187 209.169L258.041 213.874C257.235 214.336 256.09 214.424 255.474 214.071Z" fill="#507CA0"/>
<path d="M269.429 222.146L258.743 215.96C258.129 215.605 258.283 214.941 259.088 214.477L267.237 209.772C268.042 209.308 269.187 209.221 269.801 209.576L280.487 215.76C281.103 216.115 280.943 216.779 280.142 217.243L271.993 221.946C271.188 222.414 270.039 222.503 269.429 222.146Z" fill="#507CA0"/>
<path d="M283.382 230.224L272.692 224.038C272.084 223.683 272.236 223.02 273.039 222.557L281.189 217.852C281.991 217.39 283.14 217.298 283.752 217.653L294.438 223.841C295.053 224.194 294.898 224.856 294.094 225.322L285.944 230.025C285.139 230.489 283.992 230.577 283.382 230.224Z" fill="#507CA0"/>
<path d="M297.335 238.301L286.647 232.115C286.033 231.762 286.192 231.098 286.994 230.632L295.142 225.929C295.946 225.465 297.091 225.376 297.706 225.731L308.394 231.917C309.004 232.272 308.851 232.936 308.049 233.4L299.897 238.105C299.095 238.567 297.945 238.656 297.335 238.301Z" fill="#507CA0"/>
<path d="M311.288 246.379L300.601 240.191C299.988 239.836 300.145 239.174 300.947 238.71L309.095 234.005C309.897 233.541 311.045 233.453 311.659 233.806L322.345 239.992C322.961 240.347 322.802 241.009 322 241.473L313.852 246.178C313.046 246.642 311.901 246.734 311.288 246.379Z" fill="#507CA0"/>
<path d="M325.24 254.454L314.552 248.268C313.941 247.913 314.094 247.249 314.898 246.787L323.048 242.082C323.853 241.618 324.998 241.529 325.612 241.884L336.3 248.068C336.912 248.423 336.756 249.087 335.953 249.553L327.803 254.254C326.999 254.722 325.85 254.809 325.24 254.454Z" fill="#507CA0"/>
<path d="M339.193 262.532L328.507 256.346C327.893 255.991 328.051 255.329 328.852 254.865L337.003 250.16C337.806 249.696 338.953 249.606 339.563 249.961L350.251 256.149C350.867 256.504 350.711 257.166 349.906 257.63L341.759 262.333C340.952 262.797 339.805 262.887 339.193 262.532Z" fill="#507CA0"/>
<path d="M187.324 188.882L176.639 182.696C176.024 182.342 176.181 181.677 176.981 181.215L185.133 176.51C185.935 176.048 187.083 175.959 187.697 176.312L198.385 182.5C198.997 182.855 198.84 183.517 198.04 183.981L189.888 188.686C189.086 189.148 187.937 189.237 187.324 188.882Z" fill="#507CA0"/>
<path d="M201.278 196.96L190.592 190.774C189.977 190.421 190.132 189.757 190.936 189.293L199.084 184.588C199.887 184.124 201.038 184.037 201.65 184.39L212.336 190.576C212.948 190.931 212.796 191.595 211.991 192.059L203.842 196.764C203.041 197.228 201.89 197.315 201.278 196.96Z" fill="#507CA0"/>
<path d="M215.231 205.037L204.543 198.853C203.929 198.497 204.087 197.834 204.89 197.37L213.037 192.665C213.84 192.201 214.989 192.114 215.603 192.467L226.289 198.653C226.901 199.006 226.747 199.67 225.942 200.134L217.795 204.837C216.99 205.303 215.845 205.392 215.231 205.037Z" fill="#507CA0"/>
<path d="M298.764 253.391L218.68 207.034C217.967 206.622 218.145 205.846 219.083 205.307L226.751 200.882C227.688 200.34 229.023 200.237 229.741 200.652L309.822 247.009C310.535 247.422 310.359 248.195 309.42 248.736L301.752 253.161C300.815 253.703 299.479 253.806 298.764 253.391Z" fill="#507CA0"/>
<path d="M312.901 261.576L302.213 255.39C301.601 255.035 301.758 254.371 302.56 253.907L310.71 249.202C311.512 248.74 312.659 248.651 313.274 249.004L323.962 255.19C324.574 255.545 324.415 256.207 323.615 256.671L315.465 261.376C314.663 261.842 313.515 261.931 312.901 261.576Z" fill="#507CA0"/>
<path d="M326.852 269.652L316.169 263.465C315.554 263.111 315.711 262.446 316.513 261.982L324.663 257.279C325.465 256.816 326.613 256.728 327.225 257.083L337.913 263.267C338.527 263.622 338.37 264.286 337.566 264.75L329.42 269.453C328.616 269.921 327.469 270.008 326.852 269.652Z" fill="#507CA0"/>
<path d="M249.232 153.045L238.114 146.611C237.621 146.324 237.744 145.788 238.394 145.416L243.224 142.628C243.872 142.253 244.8 142.182 245.293 142.469L256.411 148.903C256.904 149.189 256.779 149.724 256.129 150.097L251.297 152.884C250.651 153.261 249.725 153.331 249.232 153.045Z" fill="#5E8AB5"/>
<path d="M263.183 161.123L252.067 154.687C251.574 154.399 251.697 153.868 252.347 153.493L257.178 150.704C257.826 150.331 258.751 150.261 259.244 150.545L270.358 156.981C270.851 157.268 270.729 157.802 270.083 158.176L265.25 160.966C264.602 161.337 263.675 161.408 263.183 161.123Z" fill="#5E8AB5"/>
<path d="M277.136 169.198L266.023 162.764C265.525 162.477 265.65 161.943 266.3 161.571L271.131 158.781C271.775 158.406 272.704 158.335 273.195 158.62L284.313 165.056C284.807 165.342 284.684 165.875 284.036 166.25L279.201 169.04C278.555 169.414 277.632 169.486 277.136 169.198Z" fill="#5E8AB5"/>
<path d="M291.09 177.278L279.972 170.842C279.48 170.554 279.605 170.021 280.251 169.646L285.084 166.859C285.73 166.486 286.655 166.412 287.149 166.7L298.264 173.136C298.758 173.423 298.635 173.957 297.985 174.329L293.154 177.119C292.506 177.49 291.583 177.563 291.09 177.278Z" fill="#5E8AB5"/>
<path d="M305.041 185.353L293.925 178.917C293.432 178.632 293.557 178.096 294.204 177.724L299.037 174.934C299.683 174.561 300.606 174.488 301.102 174.775L312.22 181.211C312.713 181.497 312.59 182.032 311.94 182.405L307.108 185.195C306.462 185.569 305.534 185.639 305.041 185.353Z" fill="#5E8AB5"/>
<path d="M318.996 193.431L307.878 186.995C307.385 186.709 307.51 186.174 308.158 185.801L312.99 183.012C313.636 182.639 314.562 182.567 315.055 182.853L326.173 189.287C326.666 189.574 326.539 190.108 325.893 190.482L321.059 193.272C320.415 193.645 319.489 193.716 318.996 193.431Z" fill="#5E8AB5"/>
<path d="M332.947 201.508L321.832 195.072C321.338 194.787 321.461 194.251 322.111 193.877L326.942 191.089C327.59 190.716 328.515 190.645 329.008 190.928L340.122 197.364C340.615 197.652 340.495 198.185 339.845 198.558L335.014 201.348C334.368 201.722 333.443 201.794 332.947 201.508Z" fill="#5E8AB5"/>
<path d="M346.9 209.584L335.787 203.148C335.293 202.862 335.416 202.327 336.064 201.952L340.895 199.165C341.543 198.792 342.468 198.718 342.959 199.004L354.077 205.44C354.571 205.725 354.446 206.261 353.8 206.633L348.967 209.423C348.319 209.798 347.394 209.871 346.9 209.584Z" fill="#5E8AB5"/>
<path d="M360.854 217.661L349.736 211.225C349.245 210.938 349.367 210.405 350.015 210.032L354.85 207.242C355.494 206.869 356.419 206.798 356.913 207.082L368.03 213.517C368.524 213.805 368.403 214.338 367.749 214.713L362.918 217.501C362.27 217.877 361.347 217.949 360.854 217.661Z" fill="#5E8AB5"/>
<path d="M374.807 225.739L363.691 219.303C363.198 219.015 363.321 218.482 363.97 218.109L368.801 215.32C369.449 214.947 370.374 214.876 370.868 215.161L381.984 221.597C382.477 221.882 382.354 222.418 381.704 222.79L376.872 225.58C376.226 225.955 375.3 226.024 374.807 225.739Z" fill="#5E8AB5"/>
<path d="M388.76 233.816L377.642 227.38C377.149 227.093 377.274 226.56 377.924 226.185L382.756 223.395C383.4 223.022 384.326 222.951 384.819 223.237L395.937 229.672C396.43 229.96 396.303 230.491 395.657 230.866L390.827 233.656C390.179 234.03 389.253 234.102 388.76 233.816Z" fill="#5E8AB5"/>
<path d="M236.678 160.042L225.99 153.856C225.376 153.499 225.532 152.837 226.337 152.371L234.484 147.668C235.289 147.204 236.434 147.117 237.048 147.472L247.736 153.656C248.348 154.011 248.194 154.675 247.391 155.137L239.24 159.842C238.437 160.308 237.29 160.397 236.678 160.042Z" fill="#5E8AB5"/>
<path d="M250.631 168.12L239.943 161.934C239.331 161.579 239.487 160.914 240.288 160.452L248.438 155.748C249.24 155.284 250.387 155.196 250.999 155.549L261.689 161.735C262.302 162.09 262.145 162.754 261.343 163.218L253.193 167.921C252.39 168.385 251.241 168.474 250.631 168.12Z" fill="#5E8AB5"/>
<path d="M264.58 176.197L253.894 170.011C253.282 169.656 253.439 168.992 254.241 168.528L262.391 163.825C263.195 163.361 264.34 163.272 264.955 163.627L275.642 169.815C276.255 170.17 276.098 170.834 275.296 171.296L267.148 176.001C266.346 176.463 265.196 176.55 264.58 176.197Z" fill="#5E8AB5"/>
<path d="M278.535 184.273L267.85 178.087C267.235 177.732 267.392 177.069 268.194 176.605L276.346 171.903C277.148 171.439 278.296 171.349 278.908 171.704L289.594 177.89C290.208 178.245 290.051 178.909 289.247 179.373L281.101 184.078C280.297 184.538 279.15 184.627 278.535 184.273Z" fill="#5E8AB5"/>
<path d="M292.489 192.35L281.799 186.164C281.189 185.809 281.343 185.147 282.148 184.681L290.295 179.978C291.1 179.514 292.247 179.427 292.861 179.78L303.547 185.966C304.159 186.321 304.005 186.985 303.2 187.449L295.051 192.154C294.25 192.618 293.103 192.705 292.489 192.35Z" fill="#5E8AB5"/>
<path d="M306.442 200.428L295.754 194.242C295.14 193.887 295.3 193.224 296.101 192.761L304.248 188.056C305.053 187.594 306.2 187.504 306.812 187.859L317.5 194.045C318.114 194.4 317.96 195.064 317.155 195.526L309.004 200.231C308.203 200.693 307.054 200.783 306.442 200.428Z" fill="#5E8AB5"/>
<path d="M320.395 208.503L309.707 202.317C309.095 201.962 309.251 201.3 310.052 200.836L318.201 196.131C319.004 195.667 320.151 195.578 320.767 195.933L331.453 202.119C332.068 202.474 331.909 203.138 331.105 203.602L322.959 208.305C322.154 208.771 321.009 208.858 320.395 208.503Z" fill="#5E8AB5"/>
<path d="M334.346 216.581L323.662 210.395C323.048 210.04 323.201 209.377 324.005 208.912L332.155 204.209C332.959 203.745 334.106 203.655 334.719 204.01L345.406 210.196C346.021 210.549 345.862 211.213 345.062 211.677L336.91 216.382C336.11 216.848 334.96 216.936 334.346 216.581Z" fill="#5E8AB5"/>
<path d="M348.299 224.658L337.614 218.472C337.001 218.115 337.158 217.453 337.958 216.989L346.11 212.286C346.912 211.822 348.06 211.735 348.674 212.088L359.36 218.274C359.974 218.629 359.817 219.293 359.013 219.755L350.865 224.46C350.061 224.924 348.914 225.013 348.299 224.658Z" fill="#5E8AB5"/>
<path d="M362.255 232.734L351.569 226.55C350.953 226.195 351.109 225.531 351.914 225.067L360.059 220.364C360.864 219.9 362.011 219.812 362.627 220.167L373.311 226.353C373.925 226.708 373.769 227.372 372.966 227.834L364.817 232.539C364.014 233.001 362.867 233.089 362.255 232.734Z" fill="#5E8AB5"/>
<path d="M376.206 240.811L365.518 234.625C364.908 234.27 365.064 233.606 365.865 233.144L374.014 228.439C374.817 227.977 375.964 227.888 376.58 228.241L387.264 234.427C387.878 234.782 387.724 235.446 386.919 235.908L378.77 240.613C377.967 241.077 376.82 241.166 376.206 240.811Z" fill="#5E8AB5"/>
<path d="M224.341 167.162L213.654 160.976C213.037 160.621 213.196 159.959 214 159.495L222.146 154.792C222.95 154.328 224.098 154.239 224.712 154.594L235.398 160.78C236.012 161.134 235.855 161.797 235.055 162.261L226.903 166.964C226.099 167.428 224.95 167.519 224.341 167.162Z" fill="#5E8AB5"/>
<path d="M238.293 175.239L227.605 169.055C226.993 168.7 227.149 168.036 227.952 167.572L236.101 162.867C236.904 162.403 238.051 162.316 238.663 162.671L249.351 168.857C249.965 169.212 249.809 169.874 249.006 170.338L240.857 175.043C240.052 175.507 238.903 175.594 238.293 175.239Z" fill="#5E8AB5"/>
<path d="M252.246 183.317L241.558 177.131C240.946 176.778 241.102 176.114 241.905 175.65L250.054 170.945C250.859 170.483 252.004 170.394 252.616 170.749L263.306 176.935C263.918 177.289 263.76 177.952 262.957 178.416L254.81 183.121C254.005 183.583 252.858 183.672 252.246 183.317Z" fill="#5E8AB5"/>
<path d="M266.197 191.394L255.513 185.206C254.899 184.852 255.052 184.187 255.858 183.725L264.008 179.02C264.81 178.556 265.957 178.469 266.572 178.824L277.257 185.01C277.872 185.365 277.715 186.027 276.911 186.491L268.765 191.194C267.959 191.66 266.807 191.749 266.197 191.394Z" fill="#5E8AB5"/>
<path d="M280.15 199.47L269.464 193.284C268.852 192.929 269.009 192.267 269.811 191.803L277.959 187.098C278.763 186.636 279.91 186.545 280.525 186.9L291.211 193.088C291.823 193.443 291.666 194.105 290.864 194.569L282.716 199.274C281.91 199.738 280.762 199.825 280.15 199.47Z" fill="#5E8AB5"/>
<path d="M294.105 207.547L283.418 201.361C282.803 201.007 282.96 200.342 283.764 199.878L291.91 195.175C292.716 194.711 293.866 194.622 294.476 194.977L305.162 201.163C305.776 201.52 305.623 202.182 304.817 202.646L296.667 207.351C295.863 207.815 294.716 207.902 294.105 207.547Z" fill="#5E8AB5"/>
<path d="M308.057 215.625L297.369 209.439C296.757 209.084 296.913 208.422 297.718 207.956L305.865 203.253C306.668 202.789 307.815 202.702 308.431 203.055L319.117 209.241C319.729 209.596 319.575 210.26 318.77 210.722L310.621 215.427C309.816 215.893 308.669 215.98 308.057 215.625Z" fill="#5E8AB5"/>
<path d="M322.012 223.702L311.324 217.516C310.71 217.162 310.866 216.497 311.669 216.033L319.818 211.328C320.621 210.866 321.77 210.777 322.382 211.132L333.07 217.318C333.68 217.673 333.526 218.337 332.723 218.801L324.574 223.504C323.769 223.968 322.622 224.057 322.012 223.702Z" fill="#5E8AB5"/>
<path d="M335.961 231.778L325.277 225.592C324.663 225.237 324.819 224.575 325.622 224.109L333.772 219.406C334.574 218.942 335.723 218.855 336.334 219.208L347.021 225.394C347.636 225.749 347.479 226.411 346.675 226.875L338.529 231.58C337.723 232.046 336.575 232.133 335.961 231.778Z" fill="#5E8AB5"/>
<path d="M349.918 239.856L339.23 233.669C338.616 233.315 338.771 232.65 339.575 232.188L347.725 227.483C348.527 227.02 349.674 226.93 350.289 227.285L360.975 233.471C361.591 233.828 361.432 234.488 360.63 234.954L352.48 239.657C351.676 240.121 350.526 240.21 349.918 239.856Z" fill="#5E8AB5"/>
<path d="M363.869 247.933L353.184 241.745C352.567 241.392 352.726 240.728 353.528 240.264L361.678 235.561C362.478 235.097 363.63 235.01 364.24 235.363L374.928 241.549C375.54 241.904 375.385 242.568 374.583 243.03L366.433 247.735C365.627 248.199 364.482 248.288 363.869 247.933Z" fill="#5E8AB5"/>
<path d="M211.999 174.284L201.313 168.098C200.701 167.743 200.856 167.081 201.66 166.615L209.808 161.912C210.612 161.448 211.759 161.361 212.374 161.715L223.059 167.899C223.672 168.254 223.517 168.919 222.715 169.383L214.563 174.086C213.761 174.551 212.613 174.639 211.999 174.284Z" fill="#5E8AB5"/>
<path d="M225.954 182.361L215.266 176.173C214.652 175.818 214.813 175.158 215.611 174.692L223.763 169.987C224.563 169.525 225.713 169.436 226.327 169.789L237.011 175.975C237.627 176.328 237.47 176.992 236.668 177.456L228.518 182.159C227.714 182.629 226.566 182.716 225.954 182.361Z" fill="#5E8AB5"/>
<path d="M239.905 190.439L229.22 184.253C228.605 183.898 228.764 183.234 229.568 182.77L237.714 178.067C238.518 177.603 239.664 177.514 240.28 177.868L250.966 184.054C251.578 184.409 251.422 185.074 250.621 185.536L242.469 190.24C241.669 190.704 240.52 190.794 239.905 190.439Z" fill="#5E8AB5"/>
<path d="M253.861 198.514L243.173 192.328C242.559 191.973 242.713 191.311 243.518 190.847L251.669 186.144C252.472 185.68 253.619 185.591 254.231 185.946L264.917 192.132C265.533 192.487 265.373 193.151 264.57 193.613L256.423 198.318C255.62 198.782 254.473 198.869 253.861 198.514Z" fill="#5E8AB5"/>
<path d="M267.812 206.592L257.126 200.406C256.514 200.051 256.668 199.389 257.471 198.923L265.622 194.218C266.423 193.756 267.57 193.667 268.184 194.021L278.874 200.208C279.484 200.562 279.328 201.227 278.525 201.691L270.376 206.394C269.573 206.857 268.424 206.947 267.812 206.592Z" fill="#5E8AB5"/>
<path d="M281.765 214.669L271.079 208.483C270.465 208.128 270.622 207.466 271.424 207.002L279.572 202.297C280.376 201.835 281.523 201.746 282.138 202.101L292.823 208.287C293.438 208.642 293.281 209.304 292.479 209.768L284.327 214.471C283.525 214.935 282.377 215.024 281.765 214.669Z" fill="#5E8AB5"/>
<path d="M295.718 222.745L285.031 216.559C284.418 216.204 284.575 215.542 285.377 215.078L293.525 210.373C294.327 209.911 295.479 209.82 296.093 210.176L306.779 216.363C307.391 216.715 307.234 217.38 306.432 217.844L298.282 222.549C297.478 223.012 296.333 223.102 295.718 222.745Z" fill="#5E8AB5"/>
<path d="M309.673 230.822L298.986 224.636C298.371 224.281 298.528 223.619 299.33 223.155L307.48 218.45C308.282 217.986 309.428 217.899 310.042 218.252L320.73 224.438C321.342 224.793 321.186 225.455 320.385 225.921L312.233 230.626C311.433 231.09 310.286 231.177 309.673 230.822Z" fill="#5E8AB5"/>
<path d="M323.625 238.9L312.937 232.716C312.325 232.361 312.479 231.697 313.282 231.233L321.433 226.528C322.236 226.064 323.383 225.977 323.995 226.332L334.683 232.516C335.297 232.87 335.141 233.535 334.336 233.999L326.189 238.702C325.384 239.168 324.239 239.255 323.625 238.9Z" fill="#5E8AB5"/>
<path d="M337.576 246.977L326.892 240.789C326.278 240.434 326.432 239.772 327.237 239.308L335.386 234.605C336.189 234.141 337.334 234.054 337.948 234.407L348.636 240.593C349.249 240.948 349.092 241.612 348.291 242.074L340.14 246.779C339.339 247.243 338.19 247.332 337.576 246.977Z" fill="#5E8AB5"/>
<path d="M351.529 255.055L340.843 248.869C340.229 248.514 340.388 247.85 341.188 247.388L349.34 242.683C350.14 242.219 351.289 242.13 351.902 242.485L362.587 248.671C363.202 249.025 363.047 249.688 362.243 250.154L354.093 254.855C353.293 255.321 352.143 255.408 351.529 255.055Z" fill="#5E8AB5"/>
<path d="M199.661 181.404L188.977 175.218C188.365 174.863 188.519 174.198 189.324 173.737L197.473 169.032C198.272 168.57 199.423 168.48 200.037 168.835L210.721 175.021C211.335 175.376 211.179 176.04 210.374 176.504L202.229 181.209C201.422 181.671 200.275 181.76 199.661 181.404Z" fill="#5E8AB5"/>
<path d="M213.618 189.481L202.932 183.295C202.316 182.94 202.472 182.278 203.275 181.812L211.422 177.109C212.227 176.645 213.376 176.558 213.988 176.911L224.676 183.097C225.289 183.452 225.134 184.116 224.329 184.578L216.178 189.283C215.373 189.749 214.226 189.836 213.618 189.481Z" fill="#5E8AB5"/>
<path d="M227.569 197.559L216.881 191.373C216.269 191.018 216.426 190.355 217.228 189.89L225.378 185.185C226.182 184.723 227.327 184.633 227.944 184.988L238.629 191.174C239.242 191.529 239.087 192.191 238.285 192.657L230.133 197.358C229.327 197.826 228.181 197.914 227.569 197.559Z" fill="#5E8AB5"/>
<path d="M241.524 205.636L230.836 199.45C230.22 199.095 230.379 198.433 231.183 197.967L239.329 193.264C240.133 192.8 241.281 192.713 241.893 193.068L252.581 199.254C253.195 199.609 253.036 200.271 252.236 200.735L244.084 205.44C243.282 205.904 242.133 205.991 241.524 205.636Z" fill="#5E8AB5"/>
<path d="M255.474 213.714L244.788 207.528C244.175 207.175 244.33 206.511 245.133 206.047L253.284 201.342C254.087 200.88 255.234 200.79 255.848 201.143L266.534 207.331C267.148 207.686 266.992 208.348 266.187 208.812L258.041 213.517C257.235 213.977 256.09 214.067 255.474 213.714Z" fill="#5E8AB5"/>
<path d="M269.429 221.789L258.743 215.605C258.129 215.248 258.283 214.586 259.088 214.122L267.237 209.419C268.042 208.955 269.187 208.868 269.801 209.221L280.487 215.407C281.103 215.762 280.943 216.426 280.142 216.89L271.993 221.593C271.188 222.057 270.039 222.144 269.429 221.789Z" fill="#5E8AB5"/>
<path d="M283.382 229.867L272.692 223.681C272.084 223.326 272.236 222.664 273.039 222.2L281.189 217.495C281.991 217.033 283.14 216.943 283.752 217.296L294.438 223.482C295.053 223.835 294.898 224.5 294.094 224.965L285.944 229.666C285.139 230.134 283.992 230.222 283.382 229.867Z" fill="#5E8AB5"/>
<path d="M297.335 237.944L286.647 231.758C286.033 231.403 286.192 230.741 286.994 230.277L295.142 225.572C295.946 225.11 297.091 225.021 297.706 225.376L308.394 231.562C309.004 231.917 308.851 232.581 308.049 233.043L299.897 237.748C299.095 238.21 297.945 238.299 297.335 237.944Z" fill="#5E8AB5"/>
<path d="M311.288 246.022L300.601 239.836C299.988 239.481 300.145 238.819 300.947 238.355L309.095 233.652C309.897 233.188 311.045 233.098 311.659 233.453L322.345 239.639C322.961 239.994 322.802 240.657 322 241.12L313.852 245.825C313.046 246.287 311.901 246.377 311.288 246.022Z" fill="#5E8AB5"/>
<path d="M325.24 254.097L314.552 247.913C313.941 247.558 314.094 246.894 314.898 246.43L323.048 241.727C323.853 241.261 324.998 241.174 325.612 241.529L336.3 247.713C336.912 248.07 336.756 248.732 335.953 249.198L327.803 253.899C326.999 254.365 325.85 254.452 325.24 254.097Z" fill="#5E8AB5"/>
<path d="M339.193 262.175L328.507 255.989C327.893 255.634 328.051 254.97 328.852 254.506L337.003 249.803C337.806 249.339 338.953 249.252 339.563 249.604L350.251 255.79C350.867 256.145 350.711 256.808 349.906 257.273L341.759 261.976C340.952 262.442 339.805 262.53 339.193 262.175Z" fill="#5E8AB5"/>
<path d="M187.324 188.525L176.639 182.339C176.024 181.985 176.181 181.32 176.981 180.858L185.133 176.153C185.935 175.689 187.083 175.6 187.697 175.955L198.385 182.141C198.997 182.496 198.84 183.158 198.04 183.624L189.888 188.329C189.086 188.791 187.937 188.88 187.324 188.525Z" fill="#5E8AB5"/>
<path d="M201.278 196.603L190.592 190.415C189.977 190.062 190.132 189.398 190.936 188.934L199.084 184.229C199.887 183.767 201.038 183.678 201.65 184.031L212.336 190.217C212.948 190.572 212.796 191.234 211.991 191.698L203.842 196.403C203.041 196.871 201.89 196.958 201.278 196.603Z" fill="#5E8AB5"/>
<path d="M215.231 204.678L204.543 198.494C203.929 198.14 204.087 197.475 204.89 197.013L213.037 192.308C213.84 191.844 214.989 191.757 215.603 192.11L226.289 198.296C226.901 198.651 226.747 199.315 225.942 199.777L217.795 204.482C216.99 204.946 215.845 205.035 215.231 204.678Z" fill="#5E8AB5"/>
<path d="M298.764 253.036L218.68 206.679C217.967 206.267 218.145 205.493 219.083 204.952L226.751 200.527C227.688 199.985 229.023 199.882 229.741 200.297L309.822 246.654C310.535 247.069 310.359 247.842 309.42 248.381L301.752 252.806C300.815 253.346 299.479 253.451 298.764 253.036Z" fill="#5E8AB5"/>
<path d="M312.901 261.219L302.213 255.033C301.601 254.678 301.758 254.014 302.56 253.552L310.71 248.847C311.512 248.385 312.659 248.296 313.274 248.649L323.962 254.835C324.574 255.19 324.415 255.852 323.615 256.316L315.465 261.019C314.663 261.487 313.515 261.574 312.901 261.219Z" fill="#5E8AB5"/>
<path d="M326.852 269.295L316.169 263.111C315.554 262.756 315.711 262.091 316.513 261.628L324.663 256.925C325.465 256.461 326.613 256.371 327.225 256.726L337.913 262.912C338.527 263.267 338.37 263.931 337.566 264.395L329.42 269.1C328.616 269.562 327.469 269.652 326.852 269.295Z" fill="#5E8AB5"/>
<path d="M157.393 335.447C177.521 335.447 193.837 326.017 193.837 314.383C193.837 302.75 177.521 293.319 157.393 293.319C137.265 293.319 120.949 302.75 120.949 314.383C120.949 326.017 137.265 335.447 157.393 335.447Z" fill="#A6C6DD"/>
<path d="M147.896 318.19C147.896 318.19 146.125 324.132 150.733 325.409C155.338 326.684 156.137 324.11 157.781 323.266C159.42 322.423 169.692 317.082 171.618 314.655C173.546 312.226 167.714 308.53 158.709 314.254L147.896 318.19Z" fill="#294154"/>
<path d="M129.177 307.664C129.177 307.664 127 313.122 131.238 314.724C135.478 316.322 137.03 311.994 138.288 311.195C139.766 310.255 144.573 307.146 146.6 305.021C148.627 302.895 145.58 298.252 136.59 302.885L129.177 307.664Z" fill="#294154"/>
<path d="M133.208 220.992C133.208 220.992 131.963 258.116 132.318 265.214C128.593 273.91 128.185 300.048 129.189 308.372C129.189 309.684 139.237 309.9 139.237 305.245C139.237 300.592 143.261 275.037 144.355 271.367C145.449 267.697 149.113 255.626 149.113 255.626V220.992L137.285 219.232L133.208 220.992Z" fill="#395877"/>
<path d="M175.549 206.409C175.549 206.409 168.291 209.57 162.893 201.657C157.498 193.744 167.506 195.128 167.506 195.128L174.423 199.23L175.549 206.409Z" fill="#35526D"/>
<path d="M147.28 317.575C147.391 319.092 159.198 321.144 159.198 315.809C159.198 310.473 159.781 286.278 161.366 276.204C162.949 266.128 167.161 248.347 165.618 236.632C164.076 224.914 163.844 220.306 163.605 217.374H146.275C146.275 217.374 148.195 267.435 148.195 272.051C148.195 276.666 146.717 309.754 147.28 317.575Z" fill="#44668E"/>
<path d="M148.607 161.178C148.607 161.178 144.49 157.714 138.649 159.699C133.608 161.41 129.895 167.263 129.895 176.766C129.895 186.267 135.041 189.208 135.041 203.195C135.041 217.181 129.966 220.592 130.782 231.126C131.599 241.66 162.925 245.863 167.272 240.004C170.554 234.5 163.777 209.645 164.698 202.012C165.62 194.378 169.62 177.416 167.764 172.773C166.492 169.593 156.59 162.647 148.607 161.178Z" fill="#44668E"/>
<path d="M166.716 198.245C170.726 206.538 173.95 206.947 175.549 206.409C177.946 205.602 179.066 202.545 177.602 195.976C176.141 189.408 171.311 168.859 164.342 171.682C157.161 174.593 162.701 189.951 166.716 198.245Z" fill="#3B5A7A"/>
<path d="M146.343 155.234C146.343 155.234 146.343 159.376 146.343 161.329C146.343 163.282 151.833 165.75 156.63 163.518V158.371C156.63 158.371 162.073 159.14 163.256 158.371C164.439 157.599 165.503 140.518 162.249 138.526C156.927 134.408 143.622 136.143 143.622 144.405C143.62 147.008 146.343 150.204 146.343 155.234Z" fill="#DE976D"/>
<path d="M142.705 144.254C144.288 146.098 153.795 144.351 157.341 142.275C160.89 140.201 168.58 134.223 165.325 128.365C162.073 122.506 160.51 128.898 155.154 130.082C149.798 131.267 134.745 134.991 142.705 144.254Z" fill="#624638"/>
<path d="M141.298 142.277C140.487 146.239 144.795 156.886 146.58 156.886C150.42 156.832 153.795 150.749 156.868 149.647C159.943 148.546 162.725 141.881 160.151 140.36C157.577 138.841 141.298 142.277 141.298 142.277Z" fill="#624638"/>
<path d="M159.028 165.53C159.194 166.458 154.56 170.624 147.107 167.322C139.657 164.021 143.931 161.62 143.931 161.62L149.965 164.848L154.223 164.993L159.028 165.53Z" fill="#3B5A7A"/>
<path d="M146.343 160.637C146.343 160.637 148.027 164.91 156.63 162.838C156.63 162.838 158.318 163.25 159.028 165.528C156.808 168.576 145.011 167.481 143.622 162.009C143.62 162.011 144.478 160.568 146.343 160.637Z" fill="#BFD8EF"/>
<path d="M157.91 151.338C156.963 150.759 155.176 148.184 156.975 147.246C157.657 146.891 159.053 147.204 159.638 148.762" fill="#DE976D"/>
<path d="M264.572 143.155V55.4627L213.42 25.9066V113.601L264.572 143.155Z" fill="#8FCDEF"/>
<path d="M264.572 143.155L265.795 142.444V54.7489L264.572 55.4627V143.155Z" fill="#71B5D3"/>
<path d="M265.795 54.7489L214.638 25.1948L213.42 25.9066L264.572 55.4627L265.795 54.7489Z" fill="#C2ECFF"/>
<path d="M215.675 110.75L261.245 137.08V58.07L215.675 31.7397V110.75Z" fill="#F8FFFF"/>
<path d="M223.602 62.0334C223.602 71.4809 230.254 82.9826 238.459 87.7252C246.666 92.4678 253.32 88.6531 253.32 79.2055C253.32 69.758 246.666 58.2563 238.459 53.5137C230.254 48.7711 223.602 52.5838 223.602 62.0334Z" fill="#F3F3F3"/>
<path d="M229.81 83.2205L247.11 93.2173V87.8898C247.11 85.2052 245.22 81.9417 242.89 80.5934L234.029 75.4721C231.698 74.1259 229.808 75.2084 229.808 77.893V83.2205H229.81Z" fill="#AC6F8E"/>
<path d="M238.459 81.7909C240.151 82.7664 241.52 81.9813 241.52 80.0362V76.517L235.402 72.9818V76.5031C235.402 78.4481 236.771 80.8154 238.459 81.7909Z" fill="#F0CAD4"/>
<path d="M238.489 57.1837C239.933 58.0184 245.765 62.2415 245.765 72.0916C245.765 81.9416 245.765 82.2747 245.765 82.2747C245.765 82.2747 243.363 78.224 238.156 76.0728" fill="#B9A197"/>
<path d="M238.489 57.1837C237.044 56.349 231.217 53.8369 231.217 63.6869C231.217 73.533 231.217 73.8681 231.217 73.8681C231.217 73.8681 233.616 72.5892 238.824 76.4555" fill="#B9A197"/>
<path d="M235.465 75.4423L236.844 77.1574C237.843 78.3985 239.077 79.1083 240.072 79.0211L241.455 78.9021C243.522 78.7217 244.8 76.9174 244.8 74.1635V68.6952C244.8 64.6664 241.96 59.7592 238.459 57.7348C234.958 55.7125 232.122 57.3403 232.122 61.3691V66.8374C232.122 69.5914 233.393 72.8708 235.465 75.4423Z" fill="#F0CAD4"/>
<path d="M244.8 74.7305C245.333 75.0379 245.765 74.79 245.765 74.1774V71.6296C245.765 71.017 245.331 70.2715 244.8 69.9642C244.267 69.6549 243.839 69.9047 243.839 70.5154V73.0631C243.839 73.6758 244.267 74.4212 244.8 74.7305Z" fill="#F0CAD4"/>
<path d="M232.122 67.4045C232.655 67.7118 233.085 67.4639 233.085 66.8513V64.3055C233.085 63.6928 232.653 62.9454 232.122 62.638C231.589 62.3307 231.158 62.5786 231.158 63.1912V65.737C231.156 66.3497 231.589 67.0952 232.122 67.4045Z" fill="#F0CAD4"/>
<path d="M234.066 59.5272C234.066 59.5272 237.183 67.7256 245.101 72.8033C245.101 72.8033 245.101 70.2337 245.101 68.8538C245.101 67.4738 244.106 60.9071 238.695 57.7784C233.282 54.6498 231.601 57.5822 231.916 63.6631C231.916 63.6611 234.007 63.7285 234.066 59.5272Z" fill="#B9A197"/>
<path d="M220.301 97.2402L256.621 118.223V115.981L220.301 94.9977V97.2402Z" fill="#C4C4C4"/>
<path d="M228.869 86.4761L248.053 97.5613V96.1695L228.869 85.0862V86.4761Z" fill="#C4C4C4"/>
<path d="M220.301 100.569L256.621 121.554V119.31L220.301 98.3246V100.569Z" fill="#C4C4C4"/>
<path d="M220.301 103.898L256.621 124.881V122.637L220.301 101.654V103.898Z" fill="#C4C4C4"/>
<path d="M220.301 107.227L256.621 128.21V125.965L220.301 104.983V107.227Z" fill="#C4C4C4"/>
<path d="M220.301 110.554L256.621 131.539V129.294L220.301 108.31V110.554Z" fill="#C4C4C4"/>
<path d="M246.73 103.797C246.73 105.016 247.585 106.501 248.646 107.114C249.704 107.725 250.564 107.233 250.564 106.014C250.564 104.794 249.704 103.311 248.646 102.698C247.584 102.088 246.73 102.577 246.73 103.797Z" fill="#E695AE"/>
<path d="M239.939 99.8752C239.939 101.095 240.797 102.578 241.855 103.19C242.913 103.803 243.773 103.311 243.773 102.09C243.773 100.87 242.913 99.3874 241.855 98.7748C240.795 98.1621 239.939 98.6558 239.939 99.8752Z" fill="#98C0EF"/>
<path d="M233.149 95.9514C233.149 97.1707 234.007 98.6538 235.065 99.2645C236.123 99.8751 236.983 99.3854 236.983 98.166C236.983 96.9467 236.123 95.4636 235.065 94.851C234.007 94.2403 233.149 94.732 233.149 95.9514Z" fill="#EAAD59"/>
<path d="M226.358 92.0276C226.358 93.247 227.216 94.73 228.275 95.3407C229.335 95.9534 230.193 95.4636 230.193 94.2423C230.193 93.0229 229.335 91.5399 228.275 90.9272C227.216 90.3166 226.358 90.8102 226.358 92.0276Z" fill="#B687F2"/>
<path d="M405.83 224.789V137.096L354.676 107.542V195.235L405.83 224.789Z" fill="#8FCDEF"/>
<path d="M405.83 224.789L407.051 224.079V136.384L405.83 137.096V224.789Z" fill="#71B5D3"/>
<path d="M407.051 136.384L355.894 106.828L354.676 107.542L405.83 137.096L407.051 136.384Z" fill="#C2ECFF"/>
<path d="M356.93 192.384L402.505 218.714V139.703L356.93 113.375V192.384Z" fill="#F8FFFF"/>
<path d="M364.858 143.667C364.858 153.116 371.512 164.616 379.719 169.361C387.926 174.101 394.578 170.287 394.578 160.839C394.578 151.391 387.926 139.89 379.719 135.147C371.512 130.405 364.858 134.219 364.858 143.667Z" fill="#F3F3F3"/>
<path d="M371.066 164.854L388.368 174.851V169.523C388.368 166.839 386.479 163.575 384.147 162.227L375.286 157.106C372.954 155.759 371.064 156.844 371.064 159.526V164.854H371.066Z" fill="#AC6F8E"/>
<path d="M379.719 163.426C381.407 164.404 382.776 163.617 382.776 161.672V158.151L376.658 154.617V158.137C376.658 160.082 378.027 162.451 379.719 163.426Z" fill="#F0CAD4"/>
<path d="M379.747 138.819C381.191 139.652 387.02 143.879 387.02 153.727C387.02 163.575 387.02 163.91 387.02 163.91C387.02 163.91 384.621 159.86 379.414 157.708" fill="#B9A197"/>
<path d="M379.747 138.819C378.302 137.986 372.473 135.472 372.473 145.322C372.473 155.171 372.473 155.504 372.473 155.504C372.473 155.504 374.872 154.227 380.079 158.091" fill="#B9A197"/>
<path d="M376.721 157.078L378.104 158.793C379.101 160.034 380.333 160.744 381.328 160.659L382.711 160.538C384.781 160.357 386.055 158.553 386.055 155.801V150.333C386.055 146.302 383.216 141.395 379.719 139.372C376.214 137.348 373.378 138.976 373.378 143.007V148.475C373.378 151.227 374.65 154.506 376.721 157.078Z" fill="#F0CAD4"/>
<path d="M386.055 156.364C386.588 156.671 387.02 156.424 387.02 155.811V153.265C387.02 152.652 386.586 151.907 386.055 151.6C385.524 151.292 385.094 151.54 385.094 152.151V154.697C385.094 155.309 385.524 156.057 386.055 156.364Z" fill="#F0CAD4"/>
<path d="M373.378 149.038C373.911 149.347 374.341 149.1 374.341 148.487V145.939C374.341 145.326 373.909 144.579 373.378 144.272C372.845 143.964 372.415 144.212 372.415 144.825V147.371C372.413 147.985 372.845 148.731 373.378 149.038Z" fill="#F0CAD4"/>
<path d="M375.322 141.163C375.322 141.163 378.439 149.361 386.357 154.437C386.357 154.437 386.357 151.867 386.357 150.487C386.357 149.107 385.364 142.541 379.953 139.412C374.537 136.285 372.861 139.216 373.172 145.297C373.172 145.297 375.265 145.362 375.322 141.163Z" fill="#B9A197"/>
<path d="M361.559 178.876L397.877 199.86V197.614L361.559 176.631V178.876Z" fill="#C4C4C4"/>
<path d="M370.125 168.112L389.311 179.195V177.805L370.125 166.722V168.112Z" fill="#C4C4C4"/>
<path d="M361.559 182.205L397.877 203.187V200.945L361.559 179.96V182.205Z" fill="#C4C4C4"/>
<path d="M361.559 185.534L397.877 206.516V204.272L361.559 183.289V185.534Z" fill="#C4C4C4"/>
<path d="M361.559 188.86L397.877 209.843V207.601L361.559 186.618V188.86Z" fill="#C4C4C4"/>
<path d="M361.559 192.189L397.877 213.174V210.93L361.559 189.945V192.189Z" fill="#C4C4C4"/>
<path d="M387.985 185.432C387.985 186.652 388.845 188.137 389.901 188.747C390.961 189.36 391.819 188.868 391.819 187.649C391.819 186.43 390.961 184.947 389.901 184.334C388.843 183.721 387.985 184.215 387.985 185.432Z" fill="#E695AE"/>
<path d="M381.195 181.509C381.195 182.728 382.055 184.213 383.111 184.826C384.171 185.438 385.029 184.945 385.029 183.725C385.029 182.506 384.171 181.023 383.111 180.412C382.053 179.798 381.195 180.289 381.195 181.509Z" fill="#98C0EF"/>
<path d="M374.405 177.587C374.405 178.806 375.265 180.289 376.321 180.9C377.383 181.515 378.241 181.021 378.241 179.802C378.241 178.582 377.383 177.097 376.321 176.485C375.265 175.876 374.405 176.368 374.405 177.587Z" fill="#EAAD59"/>
<path d="M367.614 173.665C367.614 174.884 368.474 176.368 369.534 176.978C370.59 177.591 371.45 177.099 371.45 175.88C371.45 174.66 370.59 173.177 369.534 172.565C368.474 171.952 367.614 172.446 367.614 173.665Z" fill="#B687F2"/>
<path d="M286.574 175.559V87.8619L235.418 58.3079V146.005L286.574 175.559Z" fill="#8FCDEF"/>
<path d="M286.574 175.559L287.793 174.845V87.1522L286.574 87.862V175.559Z" fill="#71B5D3"/>
<path d="M287.793 87.1522L236.636 57.5981L235.418 58.3079L286.574 87.862L287.793 87.1522Z" fill="#C2ECFF"/>
<path d="M237.284 142.83L282.857 169.16V90.15L237.284 63.8198V142.83Z" fill="#F8FFFF"/>
<path d="M245.208 94.1114C245.208 103.561 251.859 115.063 260.07 119.803C268.278 124.546 274.929 120.731 274.929 111.284C274.929 101.836 268.278 90.3344 260.07 85.5917C251.859 80.8491 245.208 84.6658 245.208 94.1114Z" fill="#F3F3F3"/>
<path d="M251.42 115.299L268.719 125.295V119.968C268.719 117.285 266.831 114.02 264.501 112.671L255.638 107.55C253.308 106.204 251.418 107.286 251.418 109.969V115.299H251.42Z" fill="#726E8B"/>
<path d="M260.07 113.871C261.761 114.846 263.126 114.061 263.126 112.116V108.597L257.011 105.062V108.583C257.011 110.526 258.38 112.893 260.07 113.871Z" fill="#F0CAD4"/>
<path d="M257.074 107.522L258.454 109.237C259.454 110.477 260.683 111.188 261.681 111.103L263.062 110.982C265.133 110.802 266.407 108.998 266.407 106.246V100.777C266.407 96.7464 263.568 91.8392 260.07 89.8169C256.567 87.7926 253.73 89.4223 253.73 93.4512V98.9195C253.73 101.671 255.004 104.951 257.074 107.522Z" fill="#F0CAD4"/>
<path d="M266.407 106.809C266.944 107.118 267.372 106.87 267.372 106.257V103.712C267.372 103.099 266.942 102.351 266.407 102.044C265.874 101.737 265.444 101.985 265.444 102.597V105.143C265.444 105.754 265.876 106.501 266.407 106.809Z" fill="#F0CAD4"/>
<path d="M253.73 99.4825C254.265 99.7898 254.695 99.542 254.695 98.9293V96.3816C254.695 95.7689 254.263 95.0234 253.73 94.7161C253.197 94.4088 252.769 94.6566 252.769 95.2693V97.8151C252.767 98.4297 253.197 99.1752 253.73 99.4825Z" fill="#F0CAD4"/>
<path d="M267.079 102.742C267.079 102.742 267.638 98.281 266.76 96.5323C266.76 96.5323 265.145 91.9106 260.32 89.1269C255.501 86.3412 254.451 87.6934 253.46 89.3728C253.46 89.3728 252.638 93.015 253.73 95.0314L254.055 96.7682C254.055 96.7682 256.012 95.2534 255.474 91.6449C255.474 91.6449 258.903 97.1529 264.719 99.0107C264.719 99.0107 264.804 101.834 266.419 103.357L267.079 102.742Z" fill="#8C7866"/>
<path d="M241.911 129.32L278.23 150.303V148.061L241.911 127.078V129.32Z" fill="#C4C4C4"/>
<path d="M250.476 118.556L269.663 129.641V128.249L250.476 117.166V118.556Z" fill="#C4C4C4"/>
<path d="M241.911 132.647L278.23 153.632V151.388L241.911 130.405V132.647Z" fill="#C4C4C4"/>
<path d="M241.911 135.976L278.23 156.959V154.717L241.911 133.734V135.976Z" fill="#C4C4C4"/>
<path d="M241.911 139.305L278.23 160.29V158.045L241.911 137.061V139.305Z" fill="#C4C4C4"/>
<path d="M241.911 142.632L278.23 163.617V161.374L241.911 140.39V142.632Z" fill="#C4C4C4"/>
<path d="M268.335 135.877C268.335 137.096 269.197 138.579 270.253 139.192C271.313 139.803 272.173 139.311 272.173 138.092C272.173 136.872 271.313 135.389 270.253 134.776C269.195 134.166 268.335 134.657 268.335 135.877Z" fill="#E695AE"/>
<path d="M261.545 131.955C261.545 133.172 262.407 134.658 263.463 135.27C264.523 135.883 265.383 135.389 265.383 134.172C265.383 132.952 264.523 131.467 263.463 130.855C262.407 130.242 261.545 130.734 261.545 131.955Z" fill="#98C0EF"/>
<path d="M254.756 128.031C254.756 129.249 255.616 130.734 256.672 131.344C257.734 131.957 258.592 131.465 258.592 130.244C258.592 129.027 257.734 127.542 256.672 126.931C255.616 126.32 254.756 126.812 254.756 128.031Z" fill="#EAAD59"/>
<path d="M247.968 124.108C247.968 125.327 248.828 126.812 249.884 127.423C250.946 128.035 251.804 127.542 251.804 126.322C251.804 125.103 250.946 123.62 249.884 123.007C248.826 122.397 247.968 122.888 247.968 124.108Z" fill="#B687F2"/>
<path d="M354.676 214.929V127.232L303.519 97.6802V185.375L354.676 214.929Z" fill="#8FCDEF"/>
<path d="M354.676 214.929L355.894 214.215V126.523L354.676 127.232V214.929Z" fill="#71B5D3"/>
<path d="M355.894 126.523L304.74 96.9684L303.519 97.6802L354.676 127.232L355.894 126.523Z" fill="#C2ECFF"/>
<path d="M305.384 182.201L350.958 208.531V129.52L305.384 103.19V182.201Z" fill="#F8FFFF"/>
<path d="M313.313 133.482C313.313 142.931 319.963 154.433 328.17 159.174C336.377 163.914 343.031 160.101 343.031 150.654C343.031 141.206 336.377 129.705 328.17 124.962C319.965 120.221 313.313 124.036 313.313 133.482Z" fill="#F3F3F3"/>
<path d="M319.523 154.671L336.821 164.666V159.338C336.821 156.656 334.933 153.39 332.602 152.042L323.74 146.922C321.409 145.574 319.521 146.659 319.521 149.339V154.671H319.523Z" fill="#726E8B"/>
<path d="M328.17 153.241C329.862 154.217 331.231 153.434 331.231 151.489V147.967L325.115 144.432V147.953C325.115 149.897 326.484 152.264 328.17 153.241Z" fill="#F0CAD4"/>
<path d="M325.178 146.893L326.557 148.608C327.556 149.847 328.786 150.559 329.785 150.473L331.164 150.353C333.237 150.174 334.509 148.368 334.509 145.616V140.146C334.509 136.115 331.669 131.208 328.168 129.187C324.669 127.163 321.832 128.791 321.832 132.822V138.29C321.834 141.042 323.106 144.321 325.178 146.893Z" fill="#F0CAD4"/>
<path d="M334.511 146.179C335.044 146.486 335.476 146.238 335.476 145.628V143.08C335.476 142.467 335.042 141.72 334.511 141.413C333.976 141.105 333.548 141.353 333.548 141.966V144.512C333.548 145.124 333.978 145.872 334.511 146.179Z" fill="#F0CAD4"/>
<path d="M321.833 138.853C322.366 139.16 322.794 138.914 322.794 138.3V135.754C322.794 135.141 322.365 134.394 321.833 134.086C321.298 133.779 320.867 134.027 320.867 134.64V137.185C320.867 137.8 321.298 138.546 321.833 138.853Z" fill="#F0CAD4"/>
<path d="M335.182 142.114C335.182 142.114 335.741 137.653 334.865 135.905C334.865 135.905 333.248 131.283 328.426 128.497C323.603 125.712 322.555 127.064 321.564 128.743C321.564 128.743 320.74 132.387 321.833 134.402L322.16 136.141C322.16 136.141 324.114 134.626 323.577 131.017C323.577 131.017 327.007 136.525 332.819 138.381C332.819 138.381 332.906 141.204 334.523 142.727L335.182 142.114Z" fill="#8C7866"/>
<path d="M310.01 168.691L346.332 189.673V187.431L310.01 166.448V168.691Z" fill="#C4C4C4"/>
<path d="M318.578 157.926L337.764 169.012V167.62L318.578 156.537V157.926Z" fill="#C4C4C4"/>
<path d="M310.01 172.02L346.332 193.002V190.758L310.01 169.775V172.02Z" fill="#C4C4C4"/>
<path d="M310.01 175.346L346.332 196.331V194.089L310.01 173.104V175.346Z" fill="#C4C4C4"/>
<path d="M310.01 178.675L346.332 199.66V197.416L310.01 176.431V178.675Z" fill="#C4C4C4"/>
<path d="M310.01 182.004L346.332 202.989V200.745L310.01 179.76V182.004Z" fill="#C4C4C4"/>
<path d="M336.439 175.247C336.439 176.467 337.299 177.95 338.357 178.562C339.415 179.175 340.275 178.683 340.275 177.464C340.275 176.245 339.415 174.76 338.357 174.149C337.299 173.538 336.439 174.028 336.439 175.247Z" fill="#E695AE"/>
<path d="M329.648 171.326C329.648 172.545 330.506 174.028 331.566 174.641C332.624 175.253 333.484 174.76 333.484 173.542C333.484 172.323 332.624 170.838 331.566 170.227C330.506 169.614 329.648 170.106 329.648 171.326Z" fill="#98C0EF"/>
<path d="M322.858 167.402C322.858 168.621 323.716 170.104 324.778 170.715C325.834 171.328 326.694 170.836 326.694 169.616C326.694 168.399 325.834 166.914 324.778 166.301C323.716 165.691 322.858 166.182 322.858 167.402Z" fill="#EAAD59"/>
<path d="M316.069 163.478C316.069 164.697 316.927 166.182 317.989 166.793C319.046 167.406 319.906 166.912 319.906 165.693C319.906 164.473 319.046 162.99 317.989 162.38C316.925 161.769 316.069 162.259 316.069 163.478Z" fill="#B687F2"/>
<path d="M303.509 205.113V117.418L252.351 87.8619V175.559L303.509 205.113Z" fill="#8FCDEF"/>
<path d="M303.509 205.113L304.728 204.399V116.706L303.509 117.418V205.113Z" fill="#71B5D3"/>
<path d="M304.728 116.706L253.571 87.1522L252.351 87.862L303.509 117.418L304.728 116.706Z" fill="#C2ECFF"/>
<path d="M254.219 172.384L299.79 198.714V119.704L254.219 93.3758V172.384Z" fill="#F8FFFF"/>
<path d="M262.145 123.667C262.145 133.115 268.797 144.617 277.004 149.359C285.211 154.1 291.864 150.285 291.864 140.84C291.864 131.392 285.211 119.888 277.004 115.146C268.797 110.405 262.145 114.22 262.145 123.667Z" fill="#F3F3F3"/>
<path d="M268.357 144.853L285.653 154.849V149.522C285.653 146.839 283.766 143.574 281.434 142.226L272.571 137.106C270.243 135.76 268.355 136.845 268.355 139.525V144.853H268.357Z" fill="#726E8B"/>
<path d="M277.004 143.425C278.694 144.401 280.061 143.615 280.061 141.67V138.151L273.946 134.616V138.137C273.946 140.082 275.316 142.448 277.004 143.425Z" fill="#F0CAD4"/>
<path d="M274.012 137.076L275.389 138.793C276.389 140.035 277.618 140.744 278.619 140.657L279.998 140.536C282.068 140.356 283.342 138.55 283.342 135.8V130.329C283.342 126.298 280.505 121.393 277.004 119.369C273.504 117.347 270.663 118.972 270.663 123.003V128.471C270.663 131.225 271.939 134.505 274.012 137.076Z" fill="#F0CAD4"/>
<path d="M283.342 136.363C283.877 136.67 284.307 136.422 284.307 135.809V133.264C284.307 132.651 283.875 131.904 283.342 131.596C282.811 131.289 282.379 131.537 282.379 132.149V134.695C282.379 135.308 282.813 136.055 283.342 136.363Z" fill="#F0CAD4"/>
<path d="M270.663 129.037C271.198 129.344 271.628 129.096 271.628 128.483V125.936C271.628 125.323 271.196 124.577 270.663 124.27C270.13 123.963 269.702 124.209 269.702 124.821V127.369C269.7 127.984 270.13 128.729 270.663 129.037Z" fill="#F0CAD4"/>
<path d="M284.014 132.298C284.014 132.298 284.575 127.837 283.695 126.088C283.695 126.088 282.078 121.467 277.259 118.681C272.437 115.895 271.388 117.248 270.396 118.927C270.396 118.927 269.573 122.569 270.663 124.585L270.994 126.32C270.994 126.32 272.948 124.808 272.411 121.199C272.411 121.199 275.843 126.707 281.652 128.563C281.652 128.563 281.739 131.386 283.356 132.909L284.014 132.298Z" fill="#8C7866"/>
<path d="M258.848 158.874L295.163 179.859V177.615L258.848 156.63V158.874Z" fill="#C4C4C4"/>
<path d="M267.412 148.11L286.598 159.193V157.805L267.412 146.72V148.11Z" fill="#C4C4C4"/>
<path d="M258.848 162.203L295.163 183.188V180.942L258.848 159.959V162.203Z" fill="#C4C4C4"/>
<path d="M258.848 165.532L295.163 186.515V184.271L258.848 163.288V165.532Z" fill="#C4C4C4"/>
<path d="M258.848 168.859L295.163 189.844V187.599L258.848 166.615V168.859Z" fill="#C4C4C4"/>
<path d="M258.848 172.188L295.163 193.171V190.926L258.848 169.944V172.188Z" fill="#C4C4C4"/>
<path d="M285.272 165.431C285.272 166.65 286.13 168.133 287.19 168.746C288.248 169.357 289.108 168.865 289.108 167.646C289.108 166.428 288.248 164.943 287.19 164.331C286.128 163.72 285.272 164.212 285.272 165.431Z" fill="#E695AE"/>
<path d="M278.482 161.509C278.482 162.727 279.34 164.212 280.4 164.822C281.458 165.435 282.318 164.941 282.318 163.722C282.318 162.503 281.458 161.019 280.4 160.407C279.34 159.798 278.482 160.29 278.482 161.509Z" fill="#98C0EF"/>
<path d="M271.692 157.585C271.692 158.805 272.549 160.29 273.612 160.9C274.668 161.511 275.526 161.019 275.526 159.8C275.526 158.583 274.668 157.098 273.612 156.485C272.549 155.874 271.692 156.366 271.692 157.585Z" fill="#EAAD59"/>
<path d="M264.901 153.664C264.901 154.881 265.759 156.366 266.821 156.977C267.877 157.589 268.735 157.098 268.735 155.876C268.735 154.657 267.877 153.174 266.821 152.561C265.759 151.953 264.901 152.444 264.901 153.664Z" fill="#B687F2"/>
<path d="M275.442 150.269C258.85 122.289 230.912 108.208 213.047 118.818L197.517 127.746L203.471 137.653C204.468 136.123 205.559 134.683 206.853 133.458C221.956 128.565 242.737 140.261 255.513 161.799C268.283 183.339 268.589 207.191 257.061 218.113C255.561 218.601 253.995 218.875 252.396 219.041L258.206 228.701L273.138 220.14C291.001 209.534 292.035 178.251 275.442 150.269Z" fill="#8671C6"/>
<path d="M260.51 158.831C243.92 130.851 215.982 116.77 198.117 127.379C180.251 137.987 179.218 169.269 195.809 197.249C212.403 225.231 240.339 239.31 258.206 228.701C276.074 218.093 277.107 186.81 260.51 158.831ZM257.059 218.115C241.954 223.009 221.175 211.315 208.399 189.775C195.625 168.237 195.321 144.383 206.851 133.46C221.954 128.567 242.735 140.263 255.511 161.801C268.283 183.341 268.587 207.193 257.059 218.115Z" fill="#7163A8"/>
<path d="M208.401 189.775C195.627 168.236 195.323 144.383 206.853 133.46C213.442 131.327 221.11 132.352 228.722 135.968C219.388 131.517 209.966 130.932 202.564 135.332C187.348 144.367 186.385 170.866 200.412 194.519C214.438 218.175 238.146 230.025 253.365 220.992C254.725 220.183 255.929 219.19 257.061 218.117C241.952 223.008 221.175 211.315 208.401 189.775Z" fill="#5C5293"/>
<path opacity="0.6" d="M255.511 161.801C242.737 140.263 221.954 128.567 206.851 133.46C195.323 144.385 195.625 168.237 208.399 189.775C221.173 211.315 241.954 223.01 257.059 218.115C268.587 207.193 268.284 183.341 255.511 161.801Z" fill="#D4F2FF"/>
<g opacity="0.8">
<path opacity="0.8" d="M246.185 213.807C233.682 213.807 219.497 204.171 210.297 188.648C208.494 185.611 206.946 182.447 205.698 179.242C205.034 177.543 205.876 175.63 207.573 174.968C209.267 174.308 211.179 175.144 211.841 176.843C212.96 179.712 214.349 182.552 215.968 185.282C225.193 200.844 240.258 209.956 251.001 206.475C252.735 205.916 254.596 206.863 255.155 208.598C255.715 210.333 254.766 212.193 253.032 212.754C250.843 213.464 248.543 213.807 246.185 213.807Z" fill="white"/>
</g>
<g opacity="0.8">
<path opacity="0.8" d="M205.25 165.358C203.495 165.358 202.036 163.97 201.963 162.197C201.559 152.668 204.283 144.63 209.629 139.565C210.949 138.314 213.037 138.367 214.292 139.694C215.542 141.016 215.484 143.104 214.163 144.357C210.226 148.09 208.232 154.326 208.551 161.92C208.631 163.74 207.218 165.278 205.397 165.356C205.347 165.358 205.3 165.358 205.25 165.358Z" fill="white"/>
</g>
<path d="M279.084 196.432C280.873 193.415 283.889 191.894 285.815 193.04L320.187 213.036L313.64 223.928L279.332 203.973C277.404 202.827 277.293 199.452 279.084 196.432Z" fill="#8FCDEF"/>
<path d="M313.648 223.924C315.576 225.069 318.59 223.55 320.38 220.532C322.17 217.514 322.058 214.139 320.129 212.994C318.201 211.849 315.187 213.368 313.397 216.386C311.607 219.404 311.72 222.779 313.648 223.924Z" fill="#7D7D7D"/>
<path d="M309.987 214.737C313.155 209.395 318.489 206.707 321.903 208.733L382.729 244.118L371.141 263.392L310.426 228.078C307.018 226.052 306.82 220.078 309.987 214.737Z" fill="#8671C6"/>
<path d="M371.119 263.381C374.53 265.407 379.863 262.72 383.031 257.38C386.199 252.039 386.002 246.067 382.591 244.041C379.18 242.015 373.847 244.702 370.679 250.043C367.511 255.384 367.708 261.355 371.119 263.381Z" fill="#7D7D7D"/>
<path d="M373.357 260.179C375.583 261.501 379.065 259.746 381.132 256.259C383.2 252.772 383.072 248.873 380.845 247.551C378.618 246.229 375.137 247.984 373.069 251.471C371.001 254.958 371.13 258.857 373.357 260.179Z" fill="#999999"/>
<path d="M271.275 368.247L374.076 308.857C376.13 307.668 378.661 307.668 380.719 308.857L446.895 347.09C450.404 349.116 450.404 354.182 446.895 356.208L406.419 379.594C400.431 383.05 393.056 383.05 387.068 379.594L331.655 411.607C330.029 412.548 328.02 412.548 326.393 411.607L271.275 379.764C266.847 377.205 266.847 370.807 271.275 368.247Z" fill="#A6C6DD"/>
<path d="M271.275 359.539L374.076 300.149C376.13 298.962 378.661 298.962 380.719 300.149L446.895 338.384C450.404 340.408 450.404 345.476 446.895 347.502L406.419 370.884C400.431 374.346 393.056 374.346 387.068 370.884L331.655 402.899C330.029 403.842 328.02 403.842 326.393 402.899L271.275 371.053C266.847 368.497 266.847 362.099 271.275 359.539Z" fill="#CC8244"/>
<path d="M271.275 357.511L374.076 298.123C376.13 296.935 378.661 296.935 380.719 298.123L446.895 336.355C450.404 338.382 450.404 343.447 446.895 345.474L406.419 368.858C400.431 372.318 393.056 372.318 387.068 368.858L331.655 400.87C330.029 401.814 328.02 401.814 326.393 400.87L271.275 369.028C266.847 366.469 266.847 360.07 271.275 357.511Z" fill="#EDB158"/>
<path d="M290.148 378.73L270.513 367.387L290.148 356.044L309.78 367.387L290.148 378.73Z" fill="white"/>
<path d="M295.27 357.905L307.561 365.231L304.232 367.093C302.554 368.031 299.855 367.991 298.199 367.004L291.904 363.251C290.248 362.263 290.263 360.703 291.942 359.769L295.27 357.905Z" fill="#726E8B"/>
<path d="M297.402 363.816C298.599 364.531 298.587 365.664 297.373 366.34L295.175 367.571L290.83 364.982L293.026 363.75C294.24 363.07 296.2 363.102 297.402 363.816Z" fill="#F0CAD4"/>
<path d="M292.389 364.163L293.941 364.428C295.064 364.621 295.942 365.138 296.233 365.792L296.642 366.697C297.254 368.055 296.572 369.484 294.854 370.446L291.436 372.359C288.918 373.769 284.862 373.707 282.373 372.226C279.889 370.745 279.912 368.398 282.429 366.988L285.845 365.077C287.561 364.113 290.059 363.766 292.389 364.163Z" fill="#F0CAD4"/>
<path d="M295.205 370.25C295.584 370.474 295.58 370.832 295.197 371.045L293.604 371.935C293.224 372.147 292.604 372.141 292.225 371.913C291.849 371.687 291.853 371.33 292.237 371.118L293.826 370.228C294.208 370.016 294.829 370.024 295.205 370.25Z" fill="#F0CAD4"/>
<path d="M286.198 364.878C286.576 365.104 286.572 365.461 286.19 365.673L284.599 366.566C284.216 366.78 283.598 366.77 283.223 366.546C282.845 366.318 282.847 365.963 283.231 365.751L284.818 364.859C285.203 364.646 285.817 364.652 286.198 364.878Z" fill="#F0CAD4"/>
<path d="M292.897 372.087C292.897 372.087 290.307 373.999 288.908 374.06C288.908 374.06 285.456 374.667 282.031 372.623C278.605 370.583 279.082 369.45 279.786 368.245C279.786 368.245 281.773 366.461 283.414 366.439L284.61 366.034C284.61 366.034 284.349 367.789 281.908 368.711C281.908 368.711 286.546 368.931 289.738 371.921C289.738 371.921 291.533 370.983 293.049 371.463L292.897 372.087Z" fill="#8C7866"/>
<path d="M271.275 346.237L374.076 286.847C376.13 285.66 378.661 285.66 380.719 286.847L446.895 325.08C450.404 327.106 450.404 332.174 446.895 334.2L406.419 357.584C400.431 361.044 393.056 361.044 387.068 357.584L331.655 389.597C330.029 390.539 328.02 390.539 326.393 389.597L271.275 357.751C266.847 355.195 266.847 348.797 271.275 346.237Z" fill="#CC8244"/>
<path d="M271.275 344.211L374.076 284.821C376.13 283.631 378.661 283.631 380.719 284.821L446.895 323.051C450.404 325.078 450.404 330.144 446.895 332.172L406.419 355.556C400.431 359.014 393.056 359.014 387.068 355.556L331.655 387.57C330.029 388.512 328.02 388.512 326.393 387.57L271.275 355.724C266.847 353.171 266.847 346.766 271.275 344.211Z" fill="#EDB158"/>
<path d="M290.148 365.43L270.513 354.087L290.148 342.742L309.78 354.087L290.148 365.43Z" fill="white"/>
<path d="M295.27 344.605L307.561 351.929L304.232 353.793C302.554 354.729 299.855 354.691 298.199 353.704L291.904 349.949C290.248 348.961 290.263 347.405 291.942 346.465L295.27 344.605Z" fill="#726E8B"/>
<path d="M297.402 350.516C298.599 351.228 298.587 352.362 297.373 353.04L295.175 354.269L290.83 351.68L293.026 350.45C294.24 349.77 296.2 349.798 297.402 350.516Z" fill="#F0CAD4"/>
<path d="M292.389 350.861L293.941 351.124C295.064 351.317 295.942 351.838 296.233 352.491L296.642 353.397C297.254 354.755 296.572 356.18 294.854 357.144L291.436 359.057C288.918 360.467 284.862 360.405 282.373 358.922C279.889 357.443 279.912 355.1 282.429 353.688L285.845 351.777C287.561 350.813 290.059 350.464 292.389 350.861Z" fill="#F0CAD4"/>
<path d="M295.205 356.948C295.584 357.174 295.58 357.531 295.197 357.743L293.604 358.635C293.224 358.847 292.604 358.839 292.225 358.611C291.849 358.385 291.853 358.028 292.237 357.816L293.826 356.926C294.208 356.714 294.829 356.722 295.205 356.948Z" fill="#F0CAD4"/>
<path d="M286.198 351.576C286.576 351.803 286.572 352.161 286.19 352.376L284.599 353.262C284.216 353.478 283.598 353.468 283.223 353.242C282.845 353.02 282.847 352.663 283.231 352.447L284.818 351.557C285.203 351.347 285.817 351.354 286.198 351.576Z" fill="#F0CAD4"/>
<path d="M292.897 358.788C292.897 358.788 290.307 360.699 288.908 360.76C288.908 360.76 285.456 361.365 282.031 359.321C278.605 357.283 279.082 356.151 279.786 354.947C279.786 354.947 281.773 353.155 283.414 353.135L284.61 352.732C284.61 352.732 284.349 354.487 281.908 355.409C281.908 355.409 286.546 355.629 289.738 358.617C289.738 358.617 291.533 357.681 293.049 358.163L292.897 358.788Z" fill="#8C7866"/>
<path d="M271.275 332.937L374.076 273.547C376.13 272.36 378.661 272.36 380.719 273.547L446.895 311.778C450.404 313.804 450.404 318.872 446.895 320.898L406.419 344.284C400.431 347.742 393.056 347.742 387.068 344.284L331.655 376.297C330.029 377.239 328.02 377.239 326.393 376.297L271.275 344.449C266.847 341.893 266.847 335.495 271.275 332.937Z" fill="#CC8244"/>
<path d="M271.275 330.909L374.076 271.519C376.13 270.332 378.661 270.332 380.719 271.519L446.895 309.752C450.404 311.776 450.404 316.844 446.895 318.87L406.419 342.254C400.431 345.714 393.056 345.714 387.068 342.254L331.655 374.268C330.029 375.21 328.02 375.21 326.393 374.268L271.275 342.42C266.847 339.867 266.847 333.467 271.275 330.909Z" fill="#EDB158"/>
<path d="M290.148 352.126L270.513 340.785L290.148 329.44L309.78 340.785L290.148 352.126Z" fill="white"/>
<path d="M295.27 331.303L307.561 338.629L304.232 340.489C302.554 341.429 299.855 341.387 298.199 340.402L291.904 336.647C290.248 335.661 290.263 334.101 291.942 333.163L295.27 331.303Z" fill="#726E8B"/>
<path d="M297.402 337.214C298.599 337.928 298.587 339.06 297.373 339.738L295.175 340.967L290.83 338.378L293.026 337.146C294.24 336.468 296.2 336.498 297.402 337.214Z" fill="#F0CAD4"/>
<path d="M292.389 337.559L293.941 337.825C295.064 338.017 295.942 338.534 296.233 339.191L296.642 340.097C297.254 341.453 296.572 342.88 294.854 343.84L291.436 345.755C288.918 347.163 284.862 347.106 282.373 345.62C279.889 344.139 279.912 341.796 282.429 340.384L285.845 338.477C287.561 337.511 290.059 337.166 292.389 337.559Z" fill="#F0CAD4"/>
<path d="M295.205 343.646C295.584 343.872 295.58 344.227 295.197 344.439L293.604 345.331C293.224 345.543 292.604 345.537 292.225 345.309C291.849 345.087 291.853 344.728 292.237 344.514L293.826 343.622C294.208 343.41 294.829 343.422 295.205 343.646Z" fill="#F0CAD4"/>
<path d="M286.198 338.277C286.576 338.503 286.572 338.858 286.19 339.072L284.599 339.96C284.216 340.174 283.598 340.166 283.223 339.944C282.845 339.718 282.847 339.359 283.231 339.145L284.818 338.255C285.203 338.043 285.817 338.051 286.198 338.277Z" fill="#F0CAD4"/>
<path d="M292.897 345.488C292.897 345.488 290.307 347.397 288.908 347.458C288.908 347.458 285.456 348.063 282.031 346.019C278.605 343.981 279.082 342.849 279.786 341.645C279.786 341.645 281.773 339.853 283.414 339.833L284.61 339.43C284.61 339.43 284.349 341.183 281.908 342.105C281.908 342.105 286.546 342.329 289.738 345.315C289.738 345.315 291.533 344.381 293.049 344.861L292.897 345.488Z" fill="#8C7866"/>
<path d="M153.268 110.04C155.814 110.04 157.908 108.032 158.015 105.486L159.154 78.3509C159.254 75.0299 156.589 72.2839 153.266 72.2839C149.947 72.2839 147.282 75.0279 147.379 78.3509L148.52 105.486C148.629 108.032 150.722 110.04 153.268 110.04Z" fill="#8671C6"/>
<path d="M153.268 121.831C155.788 121.831 157.831 119.787 157.831 117.265C157.831 114.744 155.788 112.699 153.268 112.699C150.747 112.699 148.704 114.744 148.704 117.265C148.704 119.787 150.747 121.831 153.268 121.831Z" fill="#8671C6"/>
</svg>
